<!DOCTYPE svg PUBLIC "-//W3C//DTD SVG 1.1//EN" "http://www.w3.org/Graphics/SVG/1.1/DTD/svg11.dtd"> <svg width="521px" height="521px" version="1.1" baseProfile="full" xmlns="http://www.w3.org/2000/svg" xmlns:xlink="http://www.w3.org/1999/xlink" xmlns:ev="http://www.w3.org/2001/xml-events"><polygon fill="rgb(246,133,27)" stroke="rgb(246,133,27)" points="296.3457923233509,63.785826086997986 375.5845897719264,64.17825365066528 358.7655665874481,109.07735162973404"></polygon><polygon fill="rgb(246,133,27)" stroke="rgb(246,133,27)" points="358.7655665874481,109.07735162973404 314.8449085652828,108.93645375967026 296.3457923233509,63.785826086997986"></polygon><polygon fill="rgb(118,61,22)" stroke="rgb(118,61,22)" points="423.4556609392166,142.56465062499046 476.378139808774,119.00459271669388 473.5028896331787,130.77002495527267"></polygon><polygon fill="rgb(118,61,22)" stroke="rgb(118,61,22)" points="464.2866571098566,165.09662747383118 402.26454531401396,147.3241998553276 423.4556609392166,142.56465062499046"></polygon><polygon fill="rgb(118,61,22)" stroke="rgb(118,61,22)" points="471.56562554836273,144.90124207735062 464.2866571098566,165.09662747383118 423.4556609392166,142.56465062499046"></polygon><polygon fill="rgb(118,61,22)" stroke="rgb(118,61,22)" points="471.56562554836273,144.90124207735062 423.4556609392166,142.56465062499046 473.5028896331787,130.77002495527267"></polygon><polygon fill="rgb(226,118,27)" stroke="rgb(226,118,27)" points="470.62577970325947,25.76713728904724 358.7655665874481,109.07735162973404 375.5845897719264,64.17825365066528"></polygon><polygon fill="rgb(118,61,22)" stroke="rgb(118,61,22)" points="476.378139808774,119.00459271669388 423.4556609392166,142.56465062499046 422.437515437603,80.35730695724487"></polygon><polygon fill="rgb(118,61,22)" stroke="rgb(118,61,22)" points="422.437515437603,80.35730695724487 423.4556609392166,142.56465062499046 402.26454531401396,147.3241998553276"></polygon><polygon fill="rgb(118,61,22)" stroke="rgb(118,61,22)" points="248.25469522178173,142.2292601466179 198.07010467350483,130.11519187688828 195.1269534677267,118.20694935321808"></polygon><polygon fill="rgb(228,118,27)" stroke="rgb(228,118,27)" points="485.7919862270355,230.65691140294075 467.6715499609709,298.2954694032669 400.28190722316504,276.4425745010376"></polygon><polygon fill="rgb(118,61,22)" stroke="rgb(118,61,22)" points="207.48005160689354,164.82954624295235 248.25469522178173,142.2292601466179 270.25584384053946,147.09610694646835"></polygon><polygon fill="rgb(118,61,22)" stroke="rgb(118,61,22)" points="200.07990917563438,144.40526694059372 248.25469522178173,142.2292601466179 207.48005160689354,164.82954624295235"></polygon><polygon fill="rgb(118,61,22)" stroke="rgb(118,61,22)" points="200.07990917563438,144.40526694059372 198.07010467350483,130.11519187688828 248.25469522178173,142.2292601466179"></polygon><polygon fill="rgb(228,118,27)" stroke="rgb(228,118,27)" points="314.8449085652828,108.93645375967026 202.51027812063694,24.033291935920715 296.3457923233509,63.785826086997986"></polygon><polygon fill="rgb(118,61,22)" stroke="rgb(118,61,22)" points="250.49345947802067,79.61236310005188 248.25469522178173,142.2292601466179 195.1269534677267,118.20694935321808"></polygon><polygon fill="rgb(118,61,22)" stroke="rgb(118,61,22)" points="270.25584384053946,147.09610694646835 248.25469522178173,142.2292601466179 250.49345947802067,79.61236310005188"></polygon><polygon fill="rgb(228,118,27)" stroke="rgb(228,118,27)" points="273.3546844795346,276.85983020067215 203.14474430680275,299.3924528360367 184.95607705414295,231.11238214373589"></polygon><polygon fill="rgb(246,133,27)" stroke="rgb(246,133,27)" points="422.0831622481346,172.43299797177315 464.2866571098566,165.09662747383118 485.7919862270355,230.65691140294075"></polygon><polygon fill="rgb(246,133,27)" stroke="rgb(246,133,27)" points="422.0831622481346,172.43299797177315 485.7919862270355,230.65691140294075 431.7757018506527,226.66600888967514"></polygon><polygon fill="rgb(228,118,27)" stroke="rgb(228,118,27)" points="400.28190722316504,276.4425745010376 431.7757018506527,226.66600888967514 485.7919862270355,230.65691140294075"></polygon><polygon fill="rgb(118,61,22)" stroke="rgb(118,61,22)" points="482.8041109293699,123.48126804828644 473.5028896331787,130.77002495527267 476.378139808774,119.00459271669388"></polygon><polygon fill="rgb(118,61,22)" stroke="rgb(118,61,22)" points="471.56562554836273,144.90124207735062 473.5028896331787,130.77002495527267 480.7770187109709,136.17159408330917"></polygon><polygon fill="rgb(118,61,22)" stroke="rgb(118,61,22)" points="402.26454531401396,147.3241998553276 358.7655665874481,109.07735162973404 422.437515437603,80.35730695724487"></polygon><polygon fill="rgb(118,61,22)" stroke="rgb(118,61,22)" points="464.2866571098566,165.09662747383118 471.56562554836273,144.90124207735062 477.51465967297554,149.00838893651962"></polygon><polygon fill="rgb(118,61,22)" stroke="rgb(118,61,22)" points="250.49345947802067,79.61236310005188 314.8449085652828,108.93645375967026 270.25584384053946,147.09610694646835"></polygon><polygon fill="rgb(118,61,22)" stroke="rgb(118,61,22)" points="422.437515437603,80.35730695724487 485.59546218812466,70.65251576900482 476.378139808774,119.00459271669388"></polygon><polygon fill="rgb(246,133,27)" stroke="rgb(246,133,27)" points="252.07967993617058,172.30496594309807 184.95607705414295,231.11238214373589 207.48005160689354,164.82954624295235"></polygon><polygon fill="rgb(246,133,27)" stroke="rgb(246,133,27)" points="242.34327612817287,226.92281019687653 184.95607705414295,231.11238214373589 252.07967993617058,172.30496594309807"></polygon><polygon fill="rgb(228,118,27)" stroke="rgb(228,118,27)" points="184.95607705414295,231.11238214373589 242.34327612817287,226.92281019687653 273.3546844795346,276.85983020067215"></polygon><polygon fill="rgb(118,61,22)" stroke="rgb(118,61,22)" points="188.6811449676752,122.69821447134018 195.1269534677267,118.20694935321808 198.07010467350483,130.11519187688828"></polygon><polygon fill="rgb(118,61,22)" stroke="rgb(118,61,22)" points="200.07990917563438,144.40526694059372 190.77783799171448,135.5429694056511 198.07010467350483,130.11519187688828"></polygon><polygon fill="rgb(118,61,22)" stroke="rgb(118,61,22)" points="207.48005160689354,164.82954624295235 194.11711686849594,148.53587552905083 200.07990917563438,144.40526694059372"></polygon><polygon fill="rgb(246,133,27)" stroke="rgb(246,133,27)" points="464.2866571098566,165.09662747383118 422.0831622481346,172.43299797177315 402.26454531401396,147.3241998553276"></polygon><polygon fill="rgb(118,61,22)" stroke="rgb(118,61,22)" points="195.1269534677267,118.20694935321808 186.36310118436813,69.23973441123962 250.49345947802067,79.61236310005188"></polygon><polygon fill="rgb(246,133,27)" stroke="rgb(246,133,27)" points="207.48005160689354,164.82954624295235 270.25584384053946,147.09610694646835 252.07967993617058,172.30496594309807"></polygon><polygon fill="rgb(228,118,27)" stroke="rgb(228,118,27)" points="402.26454531401396,147.3241998553276 422.0831622481346,172.43299797177315 355.8744785040617,174.02528719604015"></polygon><polygon fill="rgb(228,118,27)" stroke="rgb(228,118,27)" points="355.8744785040617,174.02528719604015 358.7655665874481,109.07735162973404 402.26454531401396,147.3241998553276"></polygon><polygon fill="rgb(228,118,27)" stroke="rgb(228,118,27)" points="270.25584384053946,147.09610694646835 314.8449085652828,108.93645375967026 319.5526204202324,174.00024564564228"></polygon><polygon fill="rgb(228,118,27)" stroke="rgb(228,118,27)" points="319.5526204202324,174.00024564564228 252.07967993617058,172.30496594309807 270.25584384053946,147.09610694646835"></polygon><polygon fill="rgb(118,61,22)" stroke="rgb(118,61,22)" points="470.62577970325947,25.76713728904724 485.59546218812466,70.65251576900482 422.437515437603,80.35730695724487"></polygon><polygon fill="rgb(118,61,22)" stroke="rgb(118,61,22)" points="422.437515437603,80.35730695724487 358.7655665874481,109.07735162973404 470.62577970325947,25.76713728904724"></polygon><polygon fill="rgb(118,61,22)" stroke="rgb(118,61,22)" points="202.51027812063694,24.033291935920715 314.8449085652828,108.93645375967026 250.49345947802067,79.61236310005188"></polygon><polygon fill="rgb(118,61,22)" stroke="rgb(118,61,22)" points="250.49345947802067,79.61236310005188 186.36310118436813,69.23973441123962 202.51027812063694,24.033291935920715"></polygon><polygon fill="rgb(246,133,27)" stroke="rgb(246,133,27)" points="314.8449085652828,108.93645375967026 358.7655665874481,109.07735162973404 355.8744785040617,174.02528719604015"></polygon><polygon fill="rgb(246,133,27)" stroke="rgb(246,133,27)" points="355.8744785040617,174.02528719604015 319.5526204202324,174.00024564564228 314.8449085652828,108.93645375967026"></polygon><polygon fill="rgb(205,97,22)" stroke="rgb(205,97,22)" points="400.28190722316504,276.4425745010376 395.00416941940784,226.06766134500504 431.7757018506527,226.66600888967514"></polygon><polygon fill="rgb(205,97,22)" stroke="rgb(205,97,22)" points="273.3546844795346,276.85983020067215 242.34327612817287,226.92281019687653 280.21429831534624,226.22038570046425"></polygon><polygon fill="rgb(205,97,22)" stroke="rgb(205,97,22)" points="355.8744785040617,174.02528719604015 422.0831622481346,172.43299797177315 395.6709413379431,199.008621186018"></polygon><polygon fill="rgb(246,133,27)" stroke="rgb(246,133,27)" points="431.7757018506527,226.66600888967514 395.00416941940784,226.06766134500504 422.0831622481346,172.43299797177315"></polygon><polygon fill="rgb(228,117,31)" stroke="rgb(228,117,31)" points="422.0831622481346,172.43299797177315 395.00416941940784,226.06766134500504 395.6709413379431,199.008621186018"></polygon><polygon fill="rgb(192,173,158)" stroke="rgb(192,173,158)" points="364.661265257746,286.9286398887634 400.28190722316504,276.4425745010376 387.6539053991437,285.6489737033844"></polygon><polygon fill="rgb(205,97,22)" stroke="rgb(205,97,22)" points="279.30147890001535,199.04116827249527 252.07967993617058,172.30496594309807 319.5526204202324,174.00024564564228"></polygon><polygon fill="rgb(246,133,27)" stroke="rgb(246,133,27)" points="252.07967993617058,172.30496594309807 280.21429831534624,226.22038570046425 242.34327612817287,226.92281019687653"></polygon><polygon fill="rgb(228,117,31)" stroke="rgb(228,117,31)" points="252.07967993617058,172.30496594309807 279.30147890001535,199.04116827249527 280.21429831534624,226.22038570046425"></polygon><polygon fill="rgb(192,173,158)" stroke="rgb(192,173,158)" points="287.13267938792706,286.01518177986145 273.3546844795346,276.85983020067215 313.80584582686424,287.11626720428467"></polygon><polygon fill="rgb(215,193,179)" stroke="rgb(215,193,179)" points="365.4015324674547,273.9012299180031 400.28190722316504,276.4425745010376 364.661265257746,286.9286398887634"></polygon><polygon fill="rgb(228,118,27)" stroke="rgb(228,118,27)" points="362.21429600566626,246.66770267486572 395.00416941940784,226.06766134500504 400.28190722316504,276.4425745010376"></polygon><polygon fill="rgb(215,193,179)" stroke="rgb(215,193,179)" points="400.28190722316504,276.4425745010376 365.4015324674547,273.9012299180031 362.21429600566626,246.66770267486572"></polygon><polygon fill="rgb(215,193,179)" stroke="rgb(215,193,179)" points="313.99133632332087,274.0649381875992 313.80584582686424,287.11626720428467 273.3546844795346,276.85983020067215"></polygon><polygon fill="rgb(228,118,27)" stroke="rgb(228,118,27)" points="317.3294978477061,246.7632070183754 273.3546844795346,276.85983020067215 280.21429831534624,226.22038570046425"></polygon><polygon fill="rgb(215,193,179)" stroke="rgb(215,193,179)" points="273.3546844795346,276.85983020067215 317.3294978477061,246.7632070183754 313.99133632332087,274.0649381875992"></polygon><polygon fill="rgb(205,97,22)" stroke="rgb(205,97,22)" points="395.6709413379431,199.008621186018 371.9084703922272,187.99591810069978 355.8744785040617,174.02528719604015"></polygon><polygon fill="rgb(246,133,27)" stroke="rgb(246,133,27)" points="395.00416941940784,226.06766134500504 362.29266065359116,208.09515215456486 395.6709413379431,199.008621186018"></polygon><polygon fill="rgb(35,52,71)" stroke="rgb(35,52,71)" points="362.29266065359116,208.09515215456486 371.9084703922272,187.99591810069978 395.6709413379431,199.008621186018"></polygon><polygon fill="rgb(205,97,22)" stroke="rgb(205,97,22)" points="319.5526204202324,174.00024564564228 303.3263851776719,187.98577918298542 279.30147890001535,199.04116827249527"></polygon><polygon fill="rgb(246,133,27)" stroke="rgb(246,133,27)" points="280.21429831534624,226.22038570046425 279.30147890001535,199.04116827249527 313.4379669241607,208.12601548433304"></polygon><polygon fill="rgb(35,52,71)" stroke="rgb(35,52,71)" points="313.4379669241607,208.12601548433304 279.30147890001535,199.04116827249527 303.3263851776719,187.98577918298542"></polygon><polygon fill="rgb(205,97,22)" stroke="rgb(205,97,22)" points="371.9084703922272,187.99591810069978 362.29266065359116,208.09515215456486 355.8744785040617,174.02528719604015"></polygon><polygon fill="rgb(205,97,22)" stroke="rgb(205,97,22)" points="303.3263851776719,187.98577918298542 319.5526204202324,174.00024564564228 313.4379669241607,208.12601548433304"></polygon><polygon fill="rgb(226,118,27)" stroke="rgb(226,118,27)" points="362.29266065359116,208.09515215456486 354.7551051247865,194.54182597249746 355.8744785040617,174.02528719604015"></polygon><polygon fill="rgb(246,133,27)" stroke="rgb(246,133,27)" points="321.3891503121704,194.54536532610655 319.5526204202324,174.00024564564228 355.8744785040617,174.02528719604015"></polygon><polygon fill="rgb(246,133,27)" stroke="rgb(246,133,27)" points="355.8744785040617,174.02528719604015 354.7551051247865,194.54182597249746 321.3891503121704,194.54536532610655"></polygon><polygon fill="rgb(228,117,31)" stroke="rgb(228,117,31)" points="313.4379669241607,208.12601548433304 319.5526204202324,174.00024564564228 321.3891503121704,194.54536532610655"></polygon><polygon fill="rgb(192,173,158)" stroke="rgb(192,173,158)" points="387.6539053991437,285.6489737033844 362.5295893549919,298.31818556785583 364.661265257746,286.9286398887634"></polygon><polygon fill="rgb(192,173,158)" stroke="rgb(192,173,158)" points="313.80584582686424,287.11626720428467 316.15347320213914,298.5097596645355 287.13267938792706,286.01518177986145"></polygon><polygon fill="rgb(246,133,27)" stroke="rgb(246,133,27)" points="362.29266065359116,208.09515215456486 395.00416941940784,226.06766134500504 362.21429600566626,246.66770267486572"></polygon><polygon fill="rgb(246,133,27)" stroke="rgb(246,133,27)" points="317.3294978477061,246.7632070183754 280.21429831534624,226.22038570046425 313.4379669241607,208.12601548433304"></polygon><polygon fill="rgb(246,133,27)" stroke="rgb(246,133,27)" points="362.21429600566626,246.66770267486572 356.43526567332447,242.65479630231857 362.29266065359116,208.09515215456486"></polygon><polygon fill="rgb(228,117,31)" stroke="rgb(228,117,31)" points="354.7551051247865,194.54182597249746 362.29266065359116,208.09515215456486 356.43526567332447,242.65479630231857"></polygon><polygon fill="rgb(228,117,31)" stroke="rgb(228,117,31)" points="321.3891503121704,194.54536532610655 323.1250684950501,242.72047251462936 313.4379669241607,208.12601548433304"></polygon><polygon fill="rgb(246,133,27)" stroke="rgb(246,133,27)" points="313.4379669241607,208.12601548433304 323.1250684950501,242.72047251462936 317.3294978477061,246.7632070183754"></polygon><polygon fill="rgb(246,133,27)" stroke="rgb(246,133,27)" points="321.3891503121704,194.54536532610655 354.7551051247865,194.54182597249746 356.43526567332447,242.65479630231857"></polygon><polygon fill="rgb(246,133,27)" stroke="rgb(246,133,27)" points="356.43526567332447,242.65479630231857 323.1250684950501,242.72047251462936 321.3891503121704,194.54536532610655"></polygon><polygon fill="rgb(192,173,158)" stroke="rgb(192,173,158)" points="365.4015324674547,273.9012299180031 364.661265257746,286.9286398887634 362.5295893549919,298.31818556785583"></polygon><polygon fill="rgb(192,173,158)" stroke="rgb(192,173,158)" points="316.15347320213914,298.5097596645355 313.80584582686424,287.11626720428467 313.99133632332087,274.0649381875992"></polygon><polygon fill="rgb(192,173,158)" stroke="rgb(192,173,158)" points="362.64572901278734,270.3901911377907 362.5295893549919,298.31818556785583 316.15347320213914,298.5097596645355"></polygon><polygon fill="rgb(192,173,158)" stroke="rgb(192,173,158)" points="362.5295893549919,298.31818556785583 362.64572901278734,270.3901911377907 365.4015324674547,273.9012299180031"></polygon><polygon fill="rgb(192,173,158)" stroke="rgb(192,173,158)" points="313.99133632332087,274.0649381875992 317.1944719348103,270.5287220478058 316.15347320213914,298.5097596645355"></polygon><polygon fill="rgb(192,173,158)" stroke="rgb(192,173,158)" points="316.15347320213914,298.5097596645355 317.1944719348103,270.5287220478058 362.64572901278734,270.3901911377907"></polygon><polygon fill="rgb(22,22,22)" stroke="rgb(22,22,22)" points="362.21429600566626,246.66770267486572 365.4015324674547,273.9012299180031 362.64572901278734,270.3901911377907"></polygon><polygon fill="rgb(22,22,22)" stroke="rgb(22,22,22)" points="317.1944719348103,270.5287220478058 313.99133632332087,274.0649381875992 317.3294978477061,246.7632070183754"></polygon><polygon fill="rgb(22,22,22)" stroke="rgb(22,22,22)" points="362.64572901278734,270.3901911377907 360.883574295789,250.82657897472382 362.21429600566626,246.66770267486572"></polygon><polygon fill="rgb(22,22,22)" stroke="rgb(22,22,22)" points="362.21429600566626,246.66770267486572 360.883574295789,250.82657897472382 357.18766753003,246.66278582811356"></polygon><polygon fill="rgb(22,22,22)" stroke="rgb(22,22,22)" points="357.18766753003,246.66278582811356 356.43526567332447,242.65479630231857 362.21429600566626,246.66770267486572"></polygon><polygon fill="rgb(22,22,22)" stroke="rgb(22,22,22)" points="323.2525804005563,246.7349697947502 323.1250684950501,242.72047251462936 356.43526567332447,242.65479630231857"></polygon><polygon fill="rgb(22,22,22)" stroke="rgb(22,22,22)" points="356.43526567332447,242.65479630231857 357.18766753003,246.66278582811356 323.2525804005563,246.7349697947502"></polygon><polygon fill="rgb(22,22,22)" stroke="rgb(22,22,22)" points="317.3294978477061,246.7632070183754 323.1250684950501,242.72047251462936 323.2525804005563,246.7349697947502"></polygon><polygon fill="rgb(22,22,22)" stroke="rgb(22,22,22)" points="317.3294978477061,246.7632070183754 319.54701491072774,250.92119085788727 317.1944719348103,270.5287220478058"></polygon><polygon fill="rgb(22,22,22)" stroke="rgb(22,22,22)" points="323.2525804005563,246.7349697947502 319.54701491072774,250.92119085788727 317.3294978477061,246.7632070183754"></polygon><polygon fill="rgb(22,22,22)" stroke="rgb(22,22,22)" points="319.54701491072774,250.92119085788727 360.883574295789,250.82657897472382 362.64572901278734,270.3901911377907"></polygon><polygon fill="rgb(22,22,22)" stroke="rgb(22,22,22)" points="362.64572901278734,270.3901911377907 317.1944719348103,270.5287220478058 319.54701491072774,250.92119085788727"></polygon><polygon fill="rgb(22,22,22)" stroke="rgb(22,22,22)" points="357.18766753003,246.66278582811356 360.883574295789,250.82657897472382 319.54701491072774,250.92119085788727"></polygon><polygon fill="rgb(22,22,22)" stroke="rgb(22,22,22)" points="319.54701491072774,250.92119085788727 323.2525804005563,246.7349697947502 357.18766753003,246.66278582811356"></polygon></svg>